<?xml version="1.0" standalone="no"?>
<!DOCTYPE svg PUBLIC "-//W3C//DTD SVG 1.1//EN" "http://www.w3.org/Graphics/SVG/1.1/DTD/svg11.dtd" >
<svg xmlns="http://www.w3.org/2000/svg">
<metadata>Generated by IcoMoon</metadata>
<defs>
<font id="icomoon" horiz-adv-x="1024">
<font-face units-per-em="1024" ascent="960" descent="-64" />
<missing-glyph horiz-adv-x="1024" />
<glyph unicode="&#x20;" horiz-adv-x="512" d="" />
<glyph unicode="&#xe900;" glyph-name="password" horiz-adv-x="978" d="M880.18-85.333h-788.135c-51.775 0-92.045 46.022-92.045 103.551v425.708c0 57.528 40.27 103.551 92.045 103.551h788.135c51.775 0 92.045-46.022 92.045-103.551v-425.708c5.753-57.528-40.27-103.551-92.045-103.551zM92.045 489.948c-23.011 0-34.517-23.011-34.517-46.022v-425.708c0-23.011 17.258-46.022 34.517-46.022h788.135c23.011 0 34.517 23.011 34.517 46.022v425.708c0 23.011-17.258 46.022-34.517 46.022h-788.135zM546.517 236.824c0-31.772-25.756-57.528-57.528-57.528s-57.528 25.756-57.528 57.528c0 31.772 25.756 57.528 57.528 57.528s57.528-25.756 57.528-57.528zM765.124 489.948h-57.528v172.584c0 120.809-97.798 218.607-218.607 218.607s-218.607-97.798-218.607-218.607v-172.584h-57.528v172.584c0 149.573 126.562 276.135 276.135 276.135s276.135-126.562 276.135-276.135v-172.584z" />
<glyph unicode="&#xe901;" glyph-name="tile" d="M614.4-51.2c-11.815 0-19.692 7.877-19.692 19.692v385.969c0 11.815 7.877 19.692 19.692 19.692h385.969c11.815 0 19.692-7.877 19.692-19.692v-385.969c0-11.815-7.877-19.692-19.692-19.692h-385.969zM409.6-51.2c11.815 0 19.692 7.877 19.692 19.692v385.969c0 11.815-7.877 19.692-19.692 19.692h-385.969c-11.815 0-19.692-7.877-19.692-19.692v-385.969c0-11.815 7.877-19.692 19.692-19.692h385.969zM1004.308 543.508c11.815 0 19.692 7.877 19.692 19.692v385.969c0 11.815-7.877 19.692-19.692 19.692h-389.908c-11.815 0-19.692-7.877-19.692-19.692v-385.969c0-11.815 7.877-19.692 19.692-19.692h389.908zM409.6 543.508c11.815 0 19.692 7.877 19.692 19.692v385.969c0 11.815-7.877 19.692-19.692 19.692h-385.969c-11.815 0-19.692-7.877-19.692-19.692v-385.969c0-11.815 7.877-19.692 19.692-19.692h385.969z" />
<glyph unicode="&#xe902;" glyph-name="toggle-on" d="M256 665.6h512l-256-460.8-256 460.8z" />
<glyph unicode="&#xe903;" glyph-name="toggle-off" d="M768 256h-512l256 460.8 256-460.8z" />
<glyph unicode="&#xe904;" glyph-name="list" d="M839.68 512h-655.36c-28.262 0-30.72-22.886-30.72-51.2s2.458-51.2 30.72-51.2h655.36c28.262 0 30.72 22.886 30.72 51.2s-2.458 51.2-30.72 51.2zM839.68 307.2h-655.36c-28.262 0-30.72-22.886-30.72-51.2s2.458-51.2 30.72-51.2h655.36c28.262 0 30.72 22.886 30.72 51.2s-2.458 51.2-30.72 51.2zM184.32 614.4h655.36c28.262 0 30.72 22.886 30.72 51.2s-2.458 51.2-30.72 51.2h-655.36c-28.262 0-30.72-22.886-30.72-51.2s2.458-51.2 30.72-51.2z" />
<glyph unicode="&#xe905;" glyph-name="play" d="M512 917.835c260.016 0 470.839-211.827 470.839-470.839s-210.824-470.839-470.839-470.839-470.839 210.824-470.839 470.839 210.824 470.839 470.839 470.839zM512 958.996c-283.106 0-512-228.894-512-512s228.894-512 512-512 512 228.894 512 512-228.894 512-512 512v0zM647.529 446.996l-135.529-88.345-135.529-87.341 1.004 175.686v175.686l135.529-88.345z" />
<glyph unicode="&#xe906;" glyph-name="video" d="M1024 187.904l-307.2 165.888v188.416l307.2 165.888v-520.192zM757.76 378.368l225.28-120.832v380.928l-225.28-120.832v-139.264zM655.36 120.32h-552.96c-57.344 0-102.4 45.056-102.4 102.4v450.56c0 57.344 45.056 102.4 102.4 102.4h552.96c57.344 0 102.4-45.056 102.4-102.4v-450.56c0-57.344-45.056-102.4-102.4-102.4zM102.4 734.72c-34.816 0-61.44-26.624-61.44-61.44v-450.56c0-34.816 26.624-61.44 61.44-61.44h552.96c34.816 0 61.44 26.624 61.44 61.44v450.56c0 34.816-26.624 61.44-61.44 61.44h-552.96zM143.36 564.736h464.896v-40.96h-464.896v40.96z" />
<glyph unicode="&#xe907;" glyph-name="photo" d="M933 709.2h-165.8l-96.4 96.6c-0.2 0.2-0.2 0.2-0.4 0.4l-0.2 0.2c-14.4 14.4-34.4 23.2-56.4 23.2h-200c-23.2 0-44-10-58.8-26v0.2l-94.4-94.6h-169.2c-44.2 0-80.2-35.8-80.2-80.2v-480.8c0-44.2 35.8-80.2 80.2-80.2h841.6c44.2 0 80.2 35.8 80.2 80.2v480.8c0 44.2-36 80.2-80.2 80.2zM973 148.2c0-22-18-40-40-40h-841.6c-22 0-40 18-40 40v480.8c0 22.2 18 40 40 40h185.8l60.4 60.4 1-3 46 49.8c7.8 8.4 18.2 13 29.2 13h200.2c10.6 0 20.6-4.2 28.4-11.8l108.2-108.4h182.4c22 0 40-18 40-40v-480.8zM512.2 629c-121.8 0-220.4-98.6-220.4-220.4s98.6-220.4 220.4-220.4 220.4 98.8 220.4 220.4-98.6 220.4-220.4 220.4zM512.2 222.2c-102.8 0-186.4 83.6-186.4 186.6 0 102.8 83.6 186.4 186.4 186.4s186.4-83.6 186.4-186.4c0.2-103-83.6-186.6-186.4-186.6z" />
<glyph unicode="&#xe908;" glyph-name="like" d="M512-64c-4.876 0-9.752 2.438-12.19 4.876-4.876 2.438-126.781 80.457-248.686 204.8-163.352 163.352-251.124 336.457-251.124 492.495 0 204.8 124.343 307.2 246.248 316.952 97.524 7.314 212.114-43.886 265.752-173.105 53.638 131.657 170.667 185.295 270.629 175.543 119.467-7.314 241.371-102.4 241.371-292.571 0-351.086-477.867-709.486-497.371-724.114-4.876-2.438-9.752-4.876-14.629-4.876zM265.752 908.8c-4.876 0-9.752 0-14.629 0-99.962-9.752-202.362-95.086-202.362-270.629 0-316.952 382.781-594.895 463.238-648.533 78.019 60.952 463.238 380.343 463.238 675.352 0 158.476-97.524 238.933-195.048 246.248-99.962 7.314-216.99-58.514-243.81-221.867-2.438-12.19-12.19-19.505-24.381-19.505s-21.943 9.752-24.381 19.505c-24.381 151.162-129.219 219.429-221.867 219.429z" />
<glyph unicode="&#xe909;" glyph-name="search" d="M426.27 97.935c-235.758 0-426.27 190.512-426.27 423.888s190.512 426.27 426.27 426.27 426.27-190.512 426.27-426.27-192.893-423.888-426.27-423.888zM426.27 900.465c-209.563 0-378.642-169.079-378.642-378.642s169.079-378.642 378.642-378.642 378.642 169.079 378.642 378.642-171.46 378.642-378.642 378.642zM1004.949-52.093c-4.763 0-11.907 2.381-16.67 7.144l-295.293 266.716c-9.526 9.526-9.526 23.814-2.381 33.34 9.526 9.526 23.814 9.526 33.34 2.381l295.293-266.716c9.526-9.526 9.526-23.814 2.381-33.34-2.381-7.144-9.526-9.526-16.67-9.526z" />
<glyph unicode="&#xe90a;" glyph-name="reply" d="M999.619-64c-9.752 0-19.505 7.314-21.943 14.629-58.514 153.6-143.848 256-256 304.762-119.467 51.2-236.495 24.381-277.943 12.19v-243.81c0-9.752-7.314-19.505-17.067-21.943s-19.505 0-26.819 7.314l-394.971 455.924c-7.314 9.752-7.314 21.943 0 31.695l394.971 455.924c7.314 7.314 17.067 9.752 26.819 7.314s17.067-12.19 17.067-21.943v-234.057c63.39 4.876 224.305 2.438 360.838-114.59 146.286-124.343 219.429-334.019 219.429-626.59 0-12.19-7.314-21.943-19.505-24.381-2.438-2.438-2.438-2.438-4.876-2.438zM570.514 335.848c51.2 0 109.714-7.314 170.667-34.133 92.648-41.448 170.667-114.59 229.181-219.429-17.067 214.552-82.895 373.029-197.486 468.114-156.038 131.657-348.648 102.4-351.086 102.4-7.314 0-14.629 0-19.505 4.876s-9.752 12.19-9.752 19.505v195.048l-338.895-390.095 338.895-390.095v195.048c0 9.752 4.876 19.505 14.629 21.943 7.314 0 73.143 26.819 163.352 26.819z" />
<glyph unicode="&#xe90b;" glyph-name="comment" d="M60.952-64c-7.314 0-12.19 2.438-17.067 7.314-7.314 7.314-9.752 19.505-4.876 26.819l102.4 221.867c-92.648 85.333-141.41 195.048-141.41 312.076 0 251.124 229.181 455.924 512 455.924s512-204.8 512-455.924c0-251.124-229.181-455.924-512-455.924-58.514 0-114.59 7.314-168.229 24.381l-273.067-134.095c-2.438-2.438-4.876-2.438-9.752-2.438zM512 911.238c-256 0-463.238-182.857-463.238-407.162 0-109.714 48.762-212.114 138.971-290.133 7.314-7.314 9.752-19.505 7.314-29.257l-80.457-173.105 216.99 109.714c4.876 2.438 12.19 2.438 19.505 2.438 51.2-17.067 107.276-26.819 163.352-26.819 256 0 463.238 182.857 463.238 407.162-2.438 224.305-209.676 407.162-465.676 407.162z" />
<glyph unicode="&#xe90c;" glyph-name="favorite" horiz-adv-x="1022" d="M194.606-64l60.235 370.679-254.842 261.792 352.145 53.285 159.855 338.244 159.855-338.244 352.145-53.285-254.842-261.792 60.235-370.679-317.394 176.072-317.394-176.072zM512 163.041l254.842-141.321-48.652 301.176 208.507 213.14-287.276 44.018-127.421 271.059-127.421-271.059-289.593-44.018 208.507-213.14-48.652-301.176 257.158 141.321z" />
<glyph unicode="&#xe90d;" glyph-name="setting" d="M575.39-64h-126.781c-14.629 0-24.381 9.752-24.381 24.381v119.467c-31.695 7.314-68.267 19.505-95.086 31.695l-85.333-85.333c-9.752-9.752-24.381-9.752-34.133 0l-119.467 119.467c-4.876 4.876-7.314 9.752-7.314 17.067s2.438 12.19 7.314 17.067l85.333 85.333c-12.19 26.819-24.381 63.39-31.695 95.086h-119.467c-14.629 0-24.381 9.752-24.381 24.381v126.781c0 14.629 9.752 24.381 24.381 24.381h119.467c7.314 31.695 19.505 68.267 31.695 95.086l-85.333 85.333c-9.752 9.752-9.752 24.381 0 34.133l119.467 119.467c9.752 9.752 24.381 9.752 34.133 0l85.333-85.333c26.819 12.19 63.39 24.381 95.086 31.695v119.467c0 14.629 9.752 24.381 24.381 24.381h126.781c14.629 0 24.381-9.752 24.381-24.381v-119.467c31.695-7.314 68.267-19.505 95.086-31.695l85.333 85.333c9.752 9.752 24.381 9.752 34.133 0l119.467-119.467c4.876-4.876 7.314-9.752 7.314-17.067s-2.438-12.19-7.314-17.067l-85.333-85.333c12.19-26.819 24.381-63.39 31.695-95.086h119.467c14.629 0 24.381-9.752 24.381-24.381v-126.781c0-14.629-9.752-24.381-24.381-24.381h-119.467c-7.314-31.695-19.505-68.267-31.695-95.086l85.333-85.333c9.752-9.752 9.752-24.381 0-34.133l-119.467-119.467c-9.752-9.752-24.381-9.752-34.133 0l-85.333 85.333c-26.819-12.19-63.39-24.381-95.086-31.695v-119.467c0-14.629-9.752-24.381-24.381-24.381zM472.99-15.238h78.019v112.152c0 12.19 7.314 21.943 19.505 24.381 24.381 4.876 85.333 21.943 117.029 39.010 9.752 4.876 21.943 4.876 29.257-2.438l80.457-80.457 85.333 85.333-80.457 80.457c-7.314 7.314-9.752 19.505-2.438 29.257 19.505 31.695 34.133 92.648 39.010 117.029 2.438 9.752 12.19 19.505 24.381 19.505h112.152v78.019h-112.152c-12.19 0-21.943 7.314-24.381 19.505-4.876 24.381-19.505 85.333-39.010 117.029-4.876 9.752-4.876 21.943 2.438 29.257l80.457 80.457-85.333 85.333-80.457-80.457c-7.314-7.314-19.505-9.752-29.257-2.438-31.695 19.505-92.648 34.133-117.029 39.010-9.752 2.438-19.505 12.19-19.505 24.381v112.152h-78.019v-112.152c0-12.19-7.314-21.943-19.505-24.381-24.381-4.876-85.333-21.943-117.029-39.010-9.752-4.876-21.943-4.876-29.257 2.438l-80.457 80.457-85.333-85.333 80.457-80.457c7.314-7.314 9.752-19.505 2.438-29.257-19.505-31.695-34.133-92.648-39.010-117.029-2.438-9.752-12.19-19.505-24.381-19.505h-112.152v-78.019h112.152c12.19 0 21.943-7.314 24.381-19.505 4.876-24.381 21.943-85.333 39.010-117.029 4.876-9.752 4.876-21.943-2.438-29.257l-80.457-80.457 85.333-85.333 80.457 80.457c7.314 7.314 19.505 9.752 29.257 2.438 31.695-19.505 92.648-34.133 117.029-39.010 9.752-2.438 19.505-12.19 19.505-24.381v-112.152zM512 233.448c-119.467 0-214.552 97.524-214.552 214.552s97.524 214.552 214.552 214.552 214.552-97.524 214.552-214.552-95.086-214.552-214.552-214.552zM512 613.79c-92.648 0-165.79-75.581-165.79-165.79s75.581-165.79 165.79-165.79 165.79 75.581 165.79 165.79-73.143 165.79-165.79 165.79z" />
<glyph unicode="&#xe90e;" glyph-name="trash" d="M872.838-64h-721.676c-14.629 0-24.381 9.752-24.381 24.381v848.457c0 14.629 9.752 24.381 24.381 24.381h721.676c14.629 0 24.381-9.752 24.381-24.381v-848.457c0-14.629-12.19-24.381-24.381-24.381zM175.543-15.238h672.914v799.695h-672.914v-799.695zM702.171 784.457h-380.343c-14.629 0-24.381 9.752-24.381 24.381v126.781c0 14.629 9.752 24.381 24.381 24.381h382.781c14.629 0 24.381-9.752 24.381-24.381v-126.781c-2.438-14.629-12.19-24.381-26.819-24.381zM346.21 833.219h334.019v78.019h-334.019v-78.019zM999.619 784.457h-975.238c-14.629 0-24.381 9.752-24.381 24.381s9.752 24.381 24.381 24.381h975.238c14.629 0 24.381-9.752 24.381-24.381s-9.752-24.381-24.381-24.381zM321.829 126.171c-14.629 0-24.381 9.752-24.381 24.381v487.619c0 14.629 9.752 24.381 24.381 24.381s24.381-9.752 24.381-24.381v-487.619c0-12.19-12.19-24.381-24.381-24.381zM512 126.171c-14.629 0-24.381 9.752-24.381 24.381v487.619c0 14.629 9.752 24.381 24.381 24.381s24.381-9.752 24.381-24.381v-487.619c0-12.19-9.752-24.381-24.381-24.381zM702.171 148.114c-14.629 0-24.381 9.752-24.381 24.381v487.619c0 14.629 9.752 24.381 24.381 24.381s24.381-9.752 24.381-24.381v-487.619c0-14.629-9.752-24.381-24.381-24.381z" />
<glyph unicode="&#xe90f;" glyph-name="alert" d="M999.619 70.095h-975.238c-14.629 0-24.381 9.752-24.381 24.381s9.752 24.381 24.381 24.381c56.076 0 102.4 48.762 102.4 109.714v243.81c0 160.914 95.086 309.638 238.933 370.59 14.629 65.829 75.581 117.029 146.286 117.029s129.219-48.762 146.286-119.467c143.848-60.952 238.933-209.676 238.933-370.59v-243.81c0-60.952 46.324-109.714 102.4-109.714 14.629 0 24.381-9.752 24.381-24.381s-9.752-21.943-24.381-21.943zM134.095 118.857h755.81c-26.819 29.257-41.448 65.829-41.448 109.714v243.81c0 146.286-87.771 277.943-219.429 329.143-7.314 2.438-14.629 9.752-14.629 19.505-9.752 51.2-51.2 90.21-102.4 90.21s-92.648-39.010-102.4-92.648c-2.438-9.752-7.314-17.067-14.629-19.505-131.657-51.2-219.429-182.857-219.429-329.143v-243.81c0-41.448-14.629-80.457-41.448-107.276zM512-64c-82.895 0-151.162 70.705-151.162 158.476 0 14.629 9.752 24.381 24.381 24.381s24.381-9.752 24.381-24.381c0-60.952 46.324-109.714 102.4-109.714s102.4 48.762 102.4 109.714c0 14.629 9.752 24.381 24.381 24.381s24.381-9.752 24.381-24.381c0-87.771-68.267-158.476-151.162-158.476z" />
<glyph unicode="&#xe910;" glyph-name="close" d="M512-51.2c-282.819 0-512 229.181-512 512s229.181 512 512 512 512-229.181 512-512-229.181-512-512-512zM512 924.038c-253.562 0-463.238-209.676-463.238-463.238s209.676-463.238 463.238-463.238 463.238 209.676 463.238 463.238-209.676 463.238-463.238 463.238zM321.829 246.248c-4.876 0-14.629 0-19.505 4.876-9.752 9.752-9.752 24.381 0 34.133l380.343 380.343c9.752 9.752 24.381 9.752 34.133 0s9.752-24.381 0-34.133l-375.467-375.467c-4.876-4.876-9.752-9.752-19.505-9.752zM702.171 246.248c-4.876 0-14.629 0-19.505 4.876l-375.467 380.343c-9.752 9.752-9.752 24.381 0 34.133s24.381 9.752 34.133 0l375.467-375.467c9.752-9.752 9.752-24.381 0-34.133-4.876-4.876-9.752-9.752-14.629-9.752z" />
<glyph unicode="&#xe911;" glyph-name="compose" horiz-adv-x="1213" d="M378.092 137.846c-3.938 0-3.938 0-7.877 0-7.877 3.938-11.815 11.815-11.815 19.692v169.354h-7.877c-192.985-3.938-350.523 141.785-350.523 322.954s157.538 322.954 350.523 322.954h409.6c192.985 0 350.523-145.723 350.523-322.954 0-43.323-7.877-86.646-27.569-126.031-3.938-11.815-15.754-15.754-27.569-7.877-11.815 3.938-15.754 15.754-7.877 27.569 15.754 35.446 23.631 70.892 23.631 110.277 0 157.538-137.846 283.569-311.138 283.569h-409.6c-173.292-3.938-311.138-129.969-311.138-287.508s137.846-283.569 311.138-283.569h23.631c11.815 0 19.692-7.877 19.692-19.692v-141.785l169.354 157.538c3.938 3.938 7.877 3.938 11.815 3.938h23.631c11.815 0 19.692-7.877 19.692-19.692s-7.877-19.692-19.692-19.692h-19.692l-196.923-181.169c3.938-7.877 0-7.877-3.938-7.877zM937.354-51.2c-149.662 0-275.692 114.215-275.692 256s122.092 256 275.692 256c149.662 0 275.692-114.215 275.692-256s-126.031-256-275.692-256zM937.354 417.477c-129.969 0-236.308-94.523-236.308-216.615s106.338-216.615 236.308-216.615 236.308 94.523 236.308 216.615-106.338 216.615-236.308 216.615zM937.354 66.954c-11.815 0-19.692 7.877-19.692 19.692v236.308c0 11.815 7.877 19.692 19.692 19.692s19.692-7.877 19.692-19.692v-236.308c0-11.815-7.877-19.692-19.692-19.692zM1063.385 185.108h-256c-11.815 0-19.692 7.877-19.692 19.692s7.877 19.692 19.692 19.692h256c11.815 0 19.692-7.877 19.692-19.692s-7.877-19.692-19.692-19.692z" />
<glyph unicode="&#xe912;" glyph-name="email" horiz-adv-x="1339" d="M1213.046 972.8h-1087.015c-70.892 0-126.031-63.015-126.031-141.785v-740.431c0-78.769 55.138-141.785 126.031-141.785h1079.138c70.892 0 126.031 63.015 126.031 141.785v740.431c7.877 78.769-47.262 141.785-118.154 141.785zM1205.169 894.031l-535.631-480.492-535.631 480.492h1071.262zM1260.308 90.585c0-31.508-23.631-63.015-47.262-63.015h-1087.015c-23.631 0-47.262 31.508-47.262 63.015v740.431c0 0 0 0 0 7.877l567.138-504.123c7.877-7.877 15.754-7.877 23.631-7.877s15.754 0 23.631 7.877l567.138 504.123c0 0 0 0 0-7.877v-740.431z" />
<glyph unicode="&#xe913;" glyph-name="user" d="M1024-51.2h-1024v121.6c0 70.4 51.2 134.4 121.6 160l230.4 76.8v102.4h64v-153.6l-275.2-89.6c-44.8-12.8-76.8-51.2-76.8-96v-57.6h896v57.6c0 44.8-32 83.2-76.8 102.4l-275.2 89.6v160h64v-115.2l230.4-76.8c70.4-25.6 121.6-89.6 121.6-160v-121.6zM505.6 345.6c-160 0-281.6 140.8-281.6 313.6s121.6 313.6 281.6 313.6 281.6-140.8 281.6-313.6-121.6-313.6-281.6-313.6zM505.6 908.8c-121.6 0-217.6-108.8-217.6-249.6s96-249.6 217.6-249.6 217.6 108.8 217.6 249.6-96 249.6-217.6 249.6zM691.2 646.4c-57.6 0-108.8 25.6-147.2 76.8-51.2-44.8-128-70.4-192-70.4-38.4 0-76.8 6.4-108.8 25.6l25.6 57.6c25.6-12.8 51.2-19.2 83.2-19.2 64 0 140.8 38.4 160 76.8l25.6 44.8 25.6-44.8c38.4-64 83.2-89.6 153.6-76.8 6.4 0 12.8 0 19.2 0h6.4l6.4-64h-12.8c-6.4 0-6.4 0-12.8 0 0-6.4-19.2-6.4-32-6.4z" />
</font>
</defs>
</svg>
